<svg width="33" height="24" viewBox="0 0 33 24" fill="none" xmlns="http://www.w3.org/2000/svg">
<path d="M10.1874 20.9407V11.6703L7.31233 9.04003L4.73421 7.58044V19.3047C4.73421 20.2099 5.46761 20.9407 6.3702 20.9407H10.1874Z" fill="#4285F4"/>
<path d="M23.2749 20.9407H27.0921C27.9974 20.9407 28.7281 20.2072 28.7281 19.3047V7.58057L25.808 9.25235L23.2749 11.6703V20.9407Z" fill="#34A853"/>
<path d="M10.1874 11.6703L9.79617 8.04812L10.1874 4.5813L16.7312 9.48915L23.2749 4.5813L23.7125 7.86095L23.2749 11.6703L16.7312 16.5782L10.1874 11.6703Z" fill="#EA4335"/>
<path d="M23.2749 4.58122V11.6702L28.7281 7.58044V5.39916C28.7281 3.37609 26.4187 2.2228 24.8019 3.43608L23.2749 4.58122Z" fill="#FBBC04"/>
<path d="M4.73418 7.58048L7.24219 9.46156L10.1873 11.6703V4.58126L8.66036 3.43612C7.04078 2.22275 4.73418 3.37614 4.73418 5.39911V7.58039V7.58048Z" fill="#C5221F"/>
</svg>
